<svg id="SvgjsSvg1011" width="288" height="288" xmlns="http://www.w3.org/2000/svg" version="1.1" xmlns:xlink="http://www.w3.org/1999/xlink" xmlns:svgjs="http://svgjs.com/svgjs"><defs id="SvgjsDefs1012"></defs><g id="SvgjsG1013" transform="matrix(0.9167,0,0,0.9167,11.995200000000011,11.995200000000011)"><svg xmlns="http://www.w3.org/2000/svg" viewBox="0 0 48 48" width="288" height="288"><path fill="#1369db" d="M29.8,24.4a5.76,5.76,0,0,0-1.09-1.11l-.11-.09a5.81,5.81,0,0,0-2.48-1.09A5.91,5.91,0,0,0,25,22H23a6,6,0,0,0-6,6v9a1,1,0,0,0,1,1H30a1,1,0,0,0,1-1V28A5.93,5.93,0,0,0,29.8,24.4Z" class="color92e0c0 svgShape"></path><path fill="#1369db" d="M25,24H23a1,1,0,0,0,0,2v7a1,1,0,0,0,2,0V26a1,1,0,0,0,0-2Z" class="color5fa77e svgShape"></path><path fill="#1369db" d="M27.52,11.45a4.84,4.84,0,0,0-1.1-.82A5,5,0,0,0,19,15v2a5,5,0,0,0,10,0V15A5,5,0,0,0,27.52,11.45Z" class="color92e0c0 svgShape"></path><path fill="#1369db" d="M16,17a1,1,0,0,1-.71-.29l-8-8A1,1,0,1,1,8.71,7.29l8,8a1,1,0,0,1,0,1.42A1,1,0,0,1,16,17Z" class="colorff9052 svgShape"></path><path fill="#1369db" d="M7 12a1 1 0 0 1-1-1V7A1 1 0 0 1 7 6h4a1 1 0 0 1 0 2H8v3A1 1 0 0 1 7 12zM32 17a1 1 0 0 1-.71-.29 1 1 0 0 1 0-1.42l8-8a1 1 0 1 1 1.42 1.42l-8 8A1 1 0 0 1 32 17z" class="colorff9052 svgShape"></path><path fill="#1369db" d="M41 12a1 1 0 0 1-1-1V8H37a1 1 0 0 1 0-2h4a1 1 0 0 1 1 1v4A1 1 0 0 1 41 12zM8 41a1 1 0 0 1-.71-.29 1 1 0 0 1 0-1.42l7-7a1 1 0 0 1 1.42 1.42l-7 7A1 1 0 0 1 8 41z" class="colorff9052 svgShape"></path><path fill="#1369db" d="M11 42H7a1 1 0 0 1-1-1V37a1 1 0 0 1 2 0v3h3a1 1 0 0 1 0 2zM40 41a1 1 0 0 1-.71-.29l-7-7a1 1 0 0 1 1.42-1.42l7 7a1 1 0 0 1 0 1.42A1 1 0 0 1 40 41z" class="colorff9052 svgShape"></path><path fill="#1369db" d="M41,42H37a1,1,0,0,1,0-2h3V37a1,1,0,0,1,2,0v4A1,1,0,0,1,41,42Z" class="colorff9052 svgShape"></path></svg></g></svg>